<svg width="85" height="30" viewBox="0 0 85 30" fill="none" xmlns="http://www.w3.org/2000/svg">
<path d="M62.6705 10.6872V10.8256C62.6703 13.2413 63.4729 15.5887 64.952 17.4987C66.431 19.4087 68.5029 20.7731 70.8418 21.3775V21.41C68.5022 20.804 66.4302 19.4381 64.9512 17.5267C63.4721 15.6153 62.6699 13.2668 62.6705 10.85C62.6705 10.7971 62.6705 10.7401 62.6705 10.6872Z" fill="#1DA2FC"/>
<path d="M84.4294 11.7534C84.241 14.0067 83.3564 16.1455 81.8981 17.8736C80.4398 19.6016 78.4802 20.8333 76.2907 21.3978V21.3653C78.4747 20.8015 80.4302 19.5744 81.8878 17.853C83.3454 16.1315 84.2334 14.0005 84.4294 11.7534Z" fill="#1DA2FC"/>
<path d="M24.52 8.09095C24.1622 8.09095 23.8078 8.1615 23.4773 8.29857C23.1467 8.43564 22.8464 8.63653 22.5936 8.88976C22.3407 9.143 22.1403 9.44359 22.0037 9.77436C21.8671 10.1051 21.7971 10.4596 21.7976 10.8174V21.7193C21.8118 22.0859 21.7518 22.4517 21.6213 22.7946C21.4908 23.1375 21.2924 23.4505 21.038 23.7149C20.7836 23.9793 20.4785 24.1897 20.1408 24.3334C19.8032 24.477 19.4401 24.5511 19.0732 24.5511C18.7063 24.5511 18.3431 24.477 18.0055 24.3334C17.6679 24.1897 17.3628 23.9793 17.1084 23.7149C16.854 23.4505 16.6556 23.1375 16.5251 22.7946C16.3945 22.4517 16.3346 22.0859 16.3487 21.7193V10.8256C16.3629 10.4589 16.3029 10.0932 16.1724 9.7503C16.0419 9.40739 15.8435 9.09435 15.5891 8.82994C15.3347 8.56553 15.0296 8.35519 14.6919 8.21151C14.3543 8.06783 13.9912 7.99377 13.6243 7.99377C13.2574 7.99377 12.8942 8.06783 12.5566 8.21151C12.219 8.35519 11.9139 8.56553 11.6595 8.82994C11.4051 9.09435 11.2067 9.40739 11.0762 9.7503C10.9456 10.0932 10.8857 10.4589 10.8998 10.8256V21.7193C10.914 22.0859 10.854 22.4517 10.7235 22.7946C10.593 23.1375 10.3946 23.4505 10.1402 23.7149C9.88579 23.9793 9.58066 24.1897 9.24304 24.3334C8.90543 24.477 8.54229 24.5511 8.17538 24.5511C7.80847 24.5511 7.44533 24.477 7.10772 24.3334C6.77011 24.1897 6.46497 23.9793 6.21059 23.7149C5.9562 23.4505 5.7578 23.1375 5.62727 22.7946C5.49674 22.4517 5.43676 22.0859 5.45093 21.7193V10.8256C5.46511 10.4589 5.40513 10.0932 5.2746 9.7503C5.14407 9.40739 4.94567 9.09435 4.69128 8.82994C4.43689 8.56553 4.13176 8.35519 3.79415 8.21151C3.45653 8.06783 3.0934 7.99377 2.72648 7.99377C2.35957 7.99377 1.99643 8.06783 1.65882 8.21151C1.32121 8.35519 1.01607 8.56553 0.761688 8.82994C0.507301 9.09435 0.3089 9.40739 0.178369 9.7503C0.047838 10.0932 -0.0121376 10.4589 0.0020348 10.8256V21.7193C0.0020348 21.7763 0.0020348 21.8251 0.0020348 21.878C0.0309248 23.4426 0.508486 24.9661 1.37795 26.2672C2.24741 27.5683 3.4722 28.5924 4.90672 29.2177C6.34124 29.843 7.92516 30.0433 9.47017 29.7947C11.0152 29.5461 12.4563 28.859 13.6222 27.8152C14.7888 28.8573 16.2297 29.5428 17.7742 29.7905C19.3186 30.0381 20.9016 29.8375 22.3355 29.2125C23.7694 28.5875 24.9938 27.5642 25.8636 26.2642C26.7333 24.9641 27.2119 23.4419 27.2425 21.878C27.2425 21.8251 27.2425 21.7763 27.2425 21.7193V10.8256C27.2435 10.4672 27.1739 10.1121 27.0376 9.78063C26.9014 9.44917 26.7011 9.14782 26.4482 8.89383C26.1954 8.63985 25.8949 8.4382 25.5641 8.30044C25.2332 8.16267 24.8784 8.09148 24.52 8.09095Z" fill="#262D35"/>
<path d="M34.4982 8.09097C33.7751 8.09097 33.0816 8.37823 32.5703 8.88954C32.0589 9.40086 31.7717 10.0943 31.7717 10.8175V27.1682C31.7575 27.5349 31.8175 27.9006 31.948 28.2435C32.0786 28.5864 32.277 28.8994 32.5313 29.1638C32.7857 29.4283 33.0909 29.6386 33.4285 29.7823C33.7661 29.926 34.1292 30 34.4961 30C34.863 30 35.2262 29.926 35.5638 29.7823C35.9014 29.6386 36.2065 29.4283 36.4609 29.1638C36.7153 28.8994 36.9137 28.5864 37.0443 28.2435C37.1748 27.9006 37.2348 27.5349 37.2206 27.1682V10.8256C37.2217 10.4672 37.1521 10.1121 37.0158 9.78066C36.8795 9.44919 36.6792 9.14784 36.4263 8.89386C36.1735 8.63987 35.873 8.43823 35.5422 8.30046C35.2113 8.16269 34.8566 8.09151 34.4982 8.09097Z" fill="#262D35"/>
<path d="M57.2216 24.7469H49.0543C49.0543 24.7469 57.1931 14.8339 59.065 12.5673C59.5208 12.0138 59.9481 11.4238 59.9481 10.675C59.9278 9.97196 59.6293 9.3057 59.118 8.82267C58.6068 8.33965 57.9246 8.07939 57.2216 8.0991H43.3613C42.6589 8.08048 41.9778 8.34123 41.4674 8.82414C40.9571 9.30705 40.6591 9.97268 40.6389 10.675C40.6601 11.3766 40.9586 12.0412 41.4688 12.5233C41.9791 13.0053 42.6596 13.2655 43.3613 13.2469H51.4715L41.2655 25.6788C40.8669 26.1279 40.6443 26.7061 40.6389 27.3066C40.6601 28.0082 40.9586 28.6728 41.4688 29.1548C41.9791 29.6368 42.6596 29.897 43.3613 29.8784H57.2216C57.5745 29.9027 57.9286 29.8542 58.262 29.7359C58.5954 29.6175 58.9008 29.4319 59.1594 29.1905C59.418 28.9491 59.6242 28.6571 59.7652 28.3327C59.9062 28.0083 59.9789 27.6583 59.9789 27.3045C59.9789 26.9508 59.9062 26.6008 59.7652 26.2764C59.6242 25.9519 59.418 25.6599 59.1594 25.4185C58.9008 25.1771 58.5954 24.9915 58.262 24.8732C57.9286 24.7548 57.5745 24.7063 57.2216 24.7306V24.7469Z" fill="#262D35"/>
<path opacity="0.5" d="M62.6705 10.6872C62.7256 7.83395 63.8978 5.11615 65.9351 3.1178C67.9725 1.11944 70.7124 0 73.5662 0C76.42 0 79.16 1.11944 81.1973 3.1178C83.2347 5.11615 84.4069 7.83395 84.462 10.6872C84.4153 9.99057 84.1031 9.33839 83.5897 8.86512C83.0764 8.39184 82.4011 8.13354 81.7029 8.14346C81.0048 8.15337 80.337 8.43074 79.8373 8.9184C79.3376 9.40606 79.0441 10.0668 79.0172 10.7645C79.0172 9.3194 78.4431 7.93345 77.4212 6.91158C76.3994 5.88972 75.0134 5.31564 73.5683 5.31564C72.1231 5.31564 70.7372 5.88972 69.7153 6.91158C68.6935 7.93345 68.1194 9.3194 68.1194 10.7645C68.104 10.0586 67.8153 9.38607 67.3141 8.88864C66.8129 8.39121 66.1383 8.10764 65.4322 8.09762C64.7261 8.0876 64.0437 8.35192 63.5286 8.83492C63.0135 9.31793 62.7059 9.98196 62.6705 10.6872Z" fill="#1DA2FC"/>
<path d="M84.4661 10.8256C84.4661 11.143 84.4539 11.4563 84.4294 11.7656C84.2334 14.0127 83.3454 16.1437 81.8878 17.8652C80.4302 19.5866 78.4747 20.8137 76.2907 21.3775V27.1723C76.2635 27.8766 75.9645 28.5431 75.4565 29.0318C74.9486 29.5205 74.2711 29.7934 73.5662 29.7934C72.8614 29.7934 72.1839 29.5205 71.6759 29.0318C71.168 28.5431 70.869 27.8766 70.8418 27.1723V21.3775C68.5029 20.7731 66.431 19.4087 64.952 17.4987C63.4729 15.5887 62.6703 13.2413 62.6705 10.8256V10.6872C62.7059 9.98196 63.0135 9.31794 63.5286 8.83493C64.0437 8.35192 64.7261 8.08761 65.4322 8.09763C66.1383 8.10764 66.8129 8.39122 67.3141 8.88865C67.8153 9.38608 68.104 10.0586 68.1194 10.7645V10.8256C68.1194 12.2707 68.6934 13.6567 69.7153 14.6785C70.7372 15.7004 72.1231 16.2745 73.5683 16.2745C75.0134 16.2745 76.3994 15.7004 77.4212 14.6785C78.4431 13.6567 79.0172 12.2707 79.0172 10.8256V10.7645C79.0441 10.0668 79.3376 9.40607 79.8373 8.91841C80.337 8.43075 81.0048 8.15338 81.7029 8.14346C82.4011 8.13355 83.0764 8.39185 83.5897 8.86512C84.1031 9.3384 84.4153 9.99058 84.462 10.6872C84.4661 10.732 84.4661 10.7768 84.4661 10.8256Z" fill="#262D35"/>
</svg>
