<svg width="54" height="74" viewBox="0 0 54 74" fill="none" xmlns="http://www.w3.org/2000/svg">
<path opacity="0.5" d="M0 26.77C1.05796e-07 19.6702 2.8204 12.8611 7.84075 7.84075C12.8611 2.8204 19.6702 0 26.77 0C33.8698 0 40.6789 2.8204 45.6992 7.84075C50.7196 12.8611 53.54 19.6702 53.54 26.77C53.4531 25.0395 52.6982 23.4103 51.4343 22.2252C50.1703 21.04 48.4958 20.3916 46.7634 20.4162C45.0309 20.4408 43.3755 21.1366 42.1457 22.3572C40.916 23.5777 40.2077 25.2278 40.17 26.96C40.17 23.4088 38.7593 20.003 36.2482 17.4918C33.737 14.9807 30.3312 13.57 26.78 13.57C23.2288 13.57 19.823 14.9807 17.3118 17.4918C14.8007 20.003 13.39 23.4088 13.39 26.96C13.3523 25.2251 12.6429 23.5726 11.4113 22.3502C10.1796 21.1278 8.52174 20.431 6.78665 20.4064C5.05155 20.3818 3.37458 21.0313 2.10874 22.2182C0.842904 23.4051 0.0869458 25.0369 0 26.77Z" fill="#1DA2FC"/>
<path d="M53.56 27.11C53.56 27.89 53.56 28.66 53.46 29.42C52.9797 34.9424 50.7981 40.1799 47.216 44.4103C43.6339 48.6408 38.8277 51.6559 33.46 53.04V67.28C33.3931 69.0108 32.6585 70.6485 31.4102 71.8494C30.162 73.0504 28.4971 73.7212 26.765 73.7212C25.0329 73.7212 23.368 73.0504 22.1198 71.8494C20.8715 70.6485 20.1369 69.0108 20.07 67.28V53.04C14.3242 51.5529 9.23526 48.1992 5.60251 43.5058C1.96975 38.8123 -0.000942455 33.0451 3.38121e-07 27.11V26.77C0.0869461 25.0369 0.842904 23.4051 2.10874 22.2182C3.37458 21.0313 5.05155 20.3818 6.78665 20.4064C8.52174 20.431 10.1796 21.1278 11.4113 22.3502C12.6429 23.5726 13.3523 25.2251 13.39 26.96V27.11C13.39 30.6612 14.8007 34.067 17.3118 36.5782C19.823 39.0893 23.2288 40.5 26.78 40.5C30.3312 40.5 33.737 39.0893 36.2482 36.5782C38.7593 34.067 40.17 30.6612 40.17 27.11V26.96C40.2077 25.2278 40.916 23.5777 42.1457 22.3571C43.3755 21.1366 45.0309 20.4408 46.7634 20.4162C48.4958 20.3915 50.1703 21.04 51.4343 22.2252C52.6982 23.4103 53.4531 25.0395 53.54 26.77C53.5569 26.8825 53.5636 26.9963 53.56 27.11Z" fill="#262D35"/>
</svg>
